<svg xmlns="http://www.w3.org/2000/svg" viewBox="0 0 64 64" fill="none">
  <rect width="64" height="64" rx="14" fill="#0ea5e9"/>
  <rect x="10" y="10" width="10" height="10" fill="#ffffff"/>
  <rect x="22" y="10" width="10" height="10" fill="#bae6fd"/>
  <rect x="34" y="10" width="10" height="10" fill="#7dd3fc"/>
  <rect x="46" y="10" width="8" height="10" fill="#38bdf8"/>
  <rect x="10" y="22" width="10" height="10" fill="#bae6fd"/>
  <rect x="22" y="22" width="10" height="10" fill="#0284c7"/>
  <rect x="34" y="22" width="10" height="10" fill="#0369a1"/>
  <rect x="46" y="22" width="8" height="10" fill="#075985"/>
  <rect x="10" y="34" width="10" height="10" fill="#7dd3fc"/>
  <rect x="22" y="34" width="10" height="10" fill="#0369a1"/>
  <rect x="34" y="34" width="10" height="10" fill="#fbbf24"/>
  <rect x="46" y="34" width="8" height="10" fill="#f59e0b"/>
  <rect x="10" y="46" width="10" height="8" fill="#38bdf8"/>
  <rect x="22" y="46" width="10" height="8" fill="#075985"/>
  <rect x="34" y="46" width="10" height="8" fill="#f59e0b"/>
  <rect x="46" y="46" width="8" height="8" fill="#d97706"/>
</svg>
